# xmcd
#
# Track frame offsets: 
#        150
#        22095
#        47350
#        77452
#        93755
#        123437
#        154070
#        178020
#        207900
#        237455
#        261535
#        287715
#
# Disc length: 4315 seconds
#
# Revision: 1
# Processed by: cddbd v1.5.2PL0 Copyright (c) Steve Scherf et al.
# Submitted via: ExactAudioCopy v0.95b4
#
DISCID=9f10d90c
DTITLE=Various Artist - Musique and Nature - Apaisement Et Concentration
DYEAR=1999
DGENRE=New Age
TTITLE0=Gover Dhan - Rhytms Of Life
TTITLE1=Gover Dhan - Peaceful Mind
TTITLE2=Gover Dhan - Fearless Soul
TTITLE3=Gover Dhan - Deep Jungle
TTITLE4=Gover Dhan - Alchemy
TTITLE5=Gover Dhan - Shaolin Meditation
TTITLE6=Gover Dhan - Fly Away
TTITLE7=Gover Dhan - Dance With The Spirits
TTITLE8=Violaine Corradi - Oikoumenè
TTITLE9=Violaine Corradi - Initium
TTITLE10=Violaine Corradi - Ikaros
TTITLE11=Violaine Corradi - Yeshoua Sum
EXTD=YEAR: 1999
EXTT0=
EXTT1=
EXTT2=
EXTT3=
EXTT4=
EXTT5=
EXTT6=
EXTT7=
EXTT8=
EXTT9=
EXTT10=
EXTT11=
PLAYORDER=
